<svg version="1.1" id="Layer_1" xmlns="http://www.w3.org/2000/svg" xmlns:xlink="http://www.w3.org/1999/xlink" x="0px" y="0px"
	 width="100%" viewBox="0 0 524 417" enable-background="new 0 0 524 417" xml:space="preserve">
<path fill="#FEFDFD" opacity="1.000000" stroke="none" 
	d="
M525.000000,216.000000 
	C525.000000,247.020889 525.000000,278.041779 524.708923,309.324524 
	C522.694153,303.225281 519.358215,301.002258 512.299194,301.581207 
	C512.299194,303.153839 512.299194,304.731110 512.299194,306.455139 
	C516.769531,307.015503 520.512085,308.164673 520.193359,313.594696 
	C519.863098,319.221954 515.477112,319.617920 511.553528,319.759308 
	C505.414948,319.980499 499.216675,319.904846 493.112518,319.281219 
	C488.423004,318.802124 485.854340,313.862610 488.270325,310.033844 
	C489.459259,308.149658 492.355499,307.342773 494.943939,305.765076 
	C494.909668,305.016815 494.844208,303.588257 494.775452,302.088135 
	C490.226562,301.478516 486.465546,302.144409 484.238861,306.278412 
	C479.757446,314.598755 484.977448,324.343140 494.366425,324.934845 
	C499.677856,325.269562 505.026703,324.966156 510.356537,325.065887 
	C516.818359,325.186768 522.014465,323.131348 525.000000,317.000000 
	C525.000000,350.570129 525.000000,384.140228 525.000000,418.000000 
	C507.980194,418.000000 490.958771,418.000000 473.468994,417.766663 
	C473.000641,417.533356 473.002258,417.066711 473.250061,416.735657 
	C473.497833,411.790466 473.497833,407.176331 473.497833,402.181946 
	C470.887848,402.181946 468.915894,402.181946 466.943909,402.181946 
	C313.455658,402.182434 159.967407,402.183563 6.479161,402.175781 
	C4.652771,402.175690 2.826387,402.061127 1.000000,402.000000 
	C1.000000,371.645782 1.000000,341.291534 1.468652,310.471558 
	C24.189711,310.005798 46.442116,310.005798 68.966446,310.005798 
	C68.966446,308.088409 68.966454,306.777252 68.966438,305.466095 
	C68.965553,205.676331 68.965172,105.886559 68.958099,6.096786 
	C68.958000,4.766546 68.873077,3.436311 68.897507,1.833714 
	C68.978188,1.374237 68.989098,1.187118 69.000000,1.000000 
	C77.020897,1.000000 85.041801,1.000000 93.572533,1.288663 
	C94.134834,1.764504 94.187294,1.951681 94.181534,2.595258 
	C94.123314,105.297798 94.123314,207.543945 94.123314,309.787842 
	C117.085358,309.787842 139.356186,309.787842 162.059875,309.787842 
	C162.059875,294.273285 162.059875,278.986084 162.059875,263.698853 
	C162.059875,248.421478 162.059875,233.144104 162.059875,217.586090 
	C164.695358,217.586090 166.686356,217.603043 168.676987,217.583450 
	C188.003998,217.393372 207.366196,217.864426 226.649582,216.845428 
	C255.188889,215.337341 281.559143,207.053986 303.982361,188.451447 
	C304.700836,187.855392 305.568787,187.439468 307.346283,186.326309 
	C306.682892,189.331543 306.269806,191.334518 305.797333,193.323380 
	C298.689056,223.247253 301.423218,251.661301 320.056366,277.023193 
	C347.742950,314.707977 407.386108,323.200745 441.413879,281.131836 
	C443.741425,278.254242 446.066071,275.374298 449.217468,271.473846 
	C449.217468,301.167053 449.217468,329.550934 449.217468,357.794830 
	C457.819427,357.794830 465.923248,357.794830 473.995239,357.794830 
	C473.995239,283.443207 473.995239,209.395126 473.995239,135.284668 
	C465.561310,135.284668 457.476746,135.284668 448.932373,135.284668 
	C448.932373,145.738998 448.932373,155.946442 448.932373,167.401352 
	C434.539001,147.625809 417.134216,134.728943 393.406250,132.006821 
	C370.061707,129.328705 349.613525,136.271729 330.798462,151.658356 
	C331.664764,149.151596 332.185242,147.780472 332.615112,146.381531 
	C341.279846,118.183289 341.268127,90.082870 329.382507,62.920685 
	C314.253204,28.345608 285.747589,10.947149 249.829346,4.025350 
	C243.911652,2.884952 237.944366,2.001958 232.000000,1.000001 
	C329.575104,1.000000 427.150238,1.000000 525.000000,1.000000 
	C525.000000,58.687271 525.000000,116.374977 524.666809,174.397552 
	C523.280640,169.652237 519.965210,167.012360 514.997009,166.477356 
	C510.264282,165.967697 506.535980,167.908340 504.023956,171.938507 
	C502.179016,174.898483 500.609985,178.031128 498.749725,180.980698 
	C496.942047,183.846954 494.006104,185.250122 491.057770,183.714630 
	C489.438477,182.871307 488.238922,180.231598 487.864227,178.213547 
	C487.253021,174.921646 489.239410,172.944000 492.548401,172.363251 
	C493.312073,172.229202 494.045868,171.924774 494.960144,171.648331 
	C494.836700,169.946503 494.733582,168.525208 494.633392,167.144043 
	C487.209778,166.837494 483.656219,169.662811 483.050873,176.065567 
	C482.448090,182.441193 485.095886,187.379990 490.006378,189.039246 
	C495.670349,190.953140 500.100922,189.046738 503.770325,183.098007 
	C505.685120,179.993835 507.159790,176.467117 509.645325,173.925385 
	C511.031586,172.507751 514.360413,171.845398 516.297791,172.462540 
	C517.932556,172.983307 519.541016,175.709656 519.900635,177.688812 
	C520.772827,182.488495 518.873474,184.250259 511.975769,185.946533 
	C512.051575,187.434586 512.131104,188.995300 512.205261,190.451050 
	C518.462524,191.526276 521.846924,187.981491 525.000000,184.000000 
	C525.000000,191.354248 525.000000,198.708496 524.672119,206.403442 
	C523.008362,202.076859 519.879578,199.077682 515.110901,198.939560 
	C504.853760,198.642456 494.582062,198.848343 483.929382,198.848343 
	C484.013031,200.200882 484.108063,201.738113 484.217834,203.513260 
	C485.825531,203.513260 486.976013,203.500946 488.126160,203.515244 
	C496.617889,203.620789 505.113953,203.603043 513.599365,203.894852 
	C517.860535,204.041397 520.242920,206.352448 520.255554,210.933701 
	C520.268372,215.593323 517.639587,217.524277 513.511353,217.957230 
	C511.034882,218.216980 508.520081,218.152252 506.022278,218.159973 
	C498.749237,218.182434 491.476105,218.167938 484.153870,218.167938 
	C484.153870,220.254303 484.153870,221.699661 484.153870,223.571243 
	C492.184052,223.571243 499.988068,223.534698 507.791595,223.582214 
	C514.679871,223.624161 521.018188,222.511017 525.000000,216.000000 
M105.619560,343.457245 
	C106.824463,344.391937 108.029366,345.326599 109.234268,346.261292 
	C110.403923,340.505554 110.379669,335.715302 110.411194,330.925385 
	C110.439072,326.687927 108.041931,324.917328 104.147934,324.892792 
	C100.224297,324.868042 96.000099,324.598297 95.186409,331.521454 
	C97.354263,330.508636 98.733521,329.724121 100.207947,329.215515 
	C101.633812,328.723633 103.431938,327.887909 104.553680,328.377747 
	C105.488922,328.786163 105.681458,330.895355 106.250969,332.376221 
	C103.266991,332.878784 100.976097,333.145508 98.745430,333.668915 
	C95.588814,334.409546 94.330864,336.806427 94.971954,339.687256 
	C95.411774,341.663696 96.477600,344.146606 98.048790,345.076813 
	C100.513474,346.535889 103.501732,346.428802 104.989479,343.004059 
	C104.989479,343.004059 105.016678,343.059418 105.619560,343.457245 
M286.247925,372.097748 
	C281.344604,371.168854 276.441315,370.239960 271.243042,369.255157 
	C271.243042,377.064362 271.243042,383.803528 271.243042,390.542694 
	C271.738953,390.830963 272.234894,391.119202 272.730804,391.407440 
	C273.635284,390.135681 275.161774,388.936676 275.320618,387.577728 
	C275.704803,384.291351 275.383636,380.928528 275.476990,377.600159 
	C275.544250,375.201447 275.856049,372.336639 279.097778,373.065521 
	C280.396210,373.357483 281.883453,375.910156 282.044464,377.555176 
	C282.459839,381.799347 282.183563,386.111206 282.183563,390.211700 
	C285.818817,391.547943 286.822540,390.459869 286.911133,387.245697 
	C287.041687,382.509247 287.699463,377.787323 288.998169,372.980591 
	C292.289886,372.324829 293.586182,373.918579 293.576385,377.018524 
	C293.565399,380.497070 293.699005,383.981262 293.541138,387.452637 
	C293.383728,390.914520 294.978729,391.298950 297.847626,390.367004 
	C297.847626,385.742310 298.138031,381.265411 297.725586,376.854279 
	C297.518219,374.636261 296.394043,371.037079 295.047791,370.713806 
	C292.636292,370.134735 289.743591,371.559937 286.247925,372.097748 
M520.274414,254.716522 
	C521.506226,253.498138 522.738037,252.279755 523.969849,251.061386 
	C522.733887,249.835052 521.708862,247.985214 520.227600,247.484207 
	C511.026062,244.371948 501.722168,241.562271 492.452240,238.652206 
	C492.500885,238.280945 492.549500,237.909698 492.598114,237.538452 
	C502.937958,237.538452 513.277771,237.538452 523.744507,237.538452 
	C523.744507,235.493301 523.744507,234.057129 523.744507,232.356934 
	C510.460449,232.356934 497.397675,232.356934 484.122009,232.356934 
	C484.122009,235.235077 484.122009,237.848114 484.122009,240.779205 
	C494.522949,243.987152 504.948181,247.202591 515.373352,250.418030 
	C515.346497,250.768616 515.319702,251.119217 515.292847,251.469803 
	C504.888916,254.633591 494.485016,257.797363 484.210724,260.921753 
	C484.210724,263.895203 484.210724,266.471436 484.210724,269.027191 
	C497.578613,269.027191 510.635529,269.027191 524.086243,269.027191 
	C523.863953,267.281403 523.691589,265.927246 523.462341,264.127075 
	C512.911926,264.127075 502.777039,264.127075 492.642120,264.127075 
	C492.608398,263.831055 492.574707,263.535034 492.541016,263.238983 
	C501.526093,260.468689 510.511139,257.698364 520.274414,254.716522 
M256.963959,334.512817 
	C256.963959,338.142761 256.963959,341.772675 256.963959,347.159332 
	C259.283112,345.441956 261.611084,344.540253 261.640930,343.567963 
	C261.920624,334.459442 261.806824,325.338806 261.806824,316.299377 
	C253.813416,315.299133 253.828125,315.303009 251.964752,322.369659 
	C250.612640,327.497437 249.215057,332.613190 247.837753,337.734314 
	C245.603470,332.547791 244.299820,327.418945 242.965332,322.298126 
	C241.077835,315.055267 241.068115,315.057800 233.191376,316.477325 
	C233.191376,325.358673 233.084671,334.324554 233.335205,343.280396 
	C233.364380,344.323395 235.369675,345.311096 236.458817,346.324463 
	C236.933838,346.008087 237.408844,345.691711 237.883865,345.375366 
	C237.883865,338.113373 237.883865,330.851410 237.883865,323.589447 
	C240.499756,329.365845 242.098846,335.238525 243.860138,341.062134 
	C244.462219,343.052948 244.071991,346.594635 247.537735,345.597351 
	C249.070496,345.156281 250.422272,342.608154 251.041336,340.745636 
	C252.936462,335.043945 254.436554,329.210968 256.090302,323.429047 
	C256.381500,323.501038 256.672729,323.573059 256.963928,323.645081 
	C256.963928,326.943176 256.963928,330.241272 256.963959,334.512817 
M491.529327,339.029724 
	C494.628510,339.029724 497.727692,339.029724 500.860535,339.029724 
	C500.860535,343.970825 500.860535,348.243378 500.860535,352.960327 
	C495.251373,352.960327 489.828094,352.960327 484.312866,352.960327 
	C484.312866,354.923523 484.312866,356.431000 484.312866,357.857605 
	C497.618713,357.857605 510.558777,357.857605 523.703552,357.857605 
	C523.703552,356.217499 523.703552,354.824402 523.703552,352.980652 
	C517.725525,352.980652 511.963654,352.980652 506.074402,352.980652 
	C506.074402,348.147400 506.074402,343.769470 506.074402,338.929565 
	C512.132568,338.929565 517.889771,338.929565 523.948792,338.929565 
	C523.841492,337.053040 523.761963,335.661865 523.682678,334.275879 
	C510.226929,334.275879 497.148376,334.275879 483.832489,334.275879 
	C483.991791,336.023834 484.119659,337.426605 484.265656,339.028595 
	C486.594879,339.028595 488.578461,339.028595 491.529327,339.029724 
M507.902710,152.943100 
	C507.344788,151.941208 506.457825,150.988724 506.298370,149.926987 
	C505.979004,147.800354 506.271790,145.579453 505.930267,143.458923 
	C505.039368,137.927078 500.944885,134.927032 494.761230,135.033005 
	C488.689880,135.137054 484.582123,138.105942 484.144287,143.396240 
	C483.752289,148.132477 484.061737,152.926758 484.061737,158.015228 
	C490.954010,158.015228 497.420715,158.015213 503.887451,158.015213 
	C510.497162,158.015213 517.106873,158.015228 524.024658,158.015228 
	C523.865967,155.995285 523.756592,154.603333 523.627808,152.963669 
	C518.456787,152.963669 513.644043,152.963669 507.902710,152.943100 
M122.027847,325.272949 
	C119.765244,325.272949 117.502647,325.272949 115.177185,325.272949 
	C115.177185,332.066223 115.177185,338.674927 115.177185,345.429810 
	C116.735786,345.429810 118.088844,345.429810 119.790398,345.429810 
	C119.790398,340.792938 119.814888,336.491791 119.780731,332.191101 
	C119.761772,329.803894 120.242775,327.333649 123.129616,328.030396 
	C124.537506,328.370178 126.246277,330.715759 126.416389,332.303650 
	C126.872513,336.561218 126.571968,340.899841 126.571968,345.675385 
	C128.254074,345.599823 129.561478,345.541077 131.040939,345.474579 
	C131.040939,340.640045 130.707520,336.280731 131.218979,332.022858 
	C131.401855,330.500488 133.627884,329.223572 134.921356,327.834625 
	C135.901337,329.234650 137.601517,330.573669 137.726288,332.046173 
	C138.101059,336.469086 137.861282,340.944092 137.861282,345.398743 
	C138.411942,345.713196 138.962601,346.027618 139.513260,346.342041 
	C140.481659,345.141296 142.186813,343.996521 142.283112,342.729492 
	C142.597061,338.598450 142.303802,334.422821 142.281708,330.264191 
	C142.257706,325.748047 139.440765,324.523682 135.652451,324.948090 
	C133.922699,325.141937 132.285492,326.161682 131.562897,326.439301 
	C128.133087,325.885010 125.490372,325.457947 122.027847,325.272949 
M520.307617,294.276489 
	C524.563171,294.706635 524.366272,292.336121 523.397583,288.954590 
	C517.607605,288.954590 511.860352,288.954590 505.770599,288.954590 
	C505.770599,285.661346 505.776245,282.857117 505.769348,280.052887 
	C505.756348,274.755066 505.753387,274.755066 500.868927,276.066803 
	C500.868927,280.214386 500.868927,284.476105 500.868927,288.778961 
	C496.536255,288.778961 492.614349,288.778961 488.416382,288.778961 
	C488.416382,285.497437 488.422791,282.509888 488.415009,279.522400 
	C488.400909,274.110046 488.397369,274.110046 484.190918,275.107361 
	C484.190918,281.391754 484.190918,287.658752 484.190918,294.277527 
	C496.093292,294.277527 507.719971,294.277527 520.307617,294.276489 
M230.404465,390.816742 
	C231.235168,390.817688 232.111115,390.988647 232.886673,390.782257 
	C234.279831,390.411621 235.612701,389.814392 236.970764,389.311859 
	C235.753098,388.584503 234.535431,387.857117 234.457764,387.810730 
	C234.457764,380.887299 234.499191,374.340332 234.441727,367.794250 
	C234.408859,364.051819 232.058533,362.058136 228.753235,361.152710 
	C220.281540,358.832123 215.216919,362.606750 214.930527,371.342926 
	C214.876099,373.002716 214.856857,374.664520 214.860291,376.325287 
	C214.889069,390.273590 215.472244,390.848663 230.404465,390.816742 
M21.725496,387.950592 
	C21.751587,380.000275 23.682613,371.388885 21.222830,364.301300 
	C19.118025,358.236511 10.601429,361.365509 4.822465,360.979492 
	C4.552513,360.961456 4.261966,361.251740 3.938699,361.420502 
	C3.938699,371.124786 3.938699,380.838867 3.938699,391.825775 
	C10.037662,390.662384 15.595248,389.602234 21.725496,387.950592 
M60.212448,335.440552 
	C60.359447,345.330994 62.505360,347.053009 71.737389,344.593048 
	C71.777946,345.269165 72.029007,346.006348 71.817337,346.569580 
	C71.171219,348.288757 70.346954,349.940918 69.592026,351.619141 
	C68.043846,350.685883 66.547081,349.647644 64.929779,348.855499 
	C63.812283,348.308075 62.528278,348.100586 61.044987,347.659882 
	C60.995914,353.278687 64.127190,354.789703 68.148560,354.718048 
	C71.912437,354.651062 75.836288,353.799866 75.986763,348.967285 
	C76.233551,341.042145 76.053581,333.103699 76.053581,324.719910 
	C73.778267,325.083557 71.932182,325.800568 70.203041,325.584015 
	C61.397148,324.480988 60.245090,325.432983 60.212448,335.440552 
M3.591429,338.307556 
	C3.591429,340.611938 3.591429,342.916321 3.591429,345.444275 
	C5.346685,345.444275 6.702537,345.444275 8.464376,345.444275 
	C8.464376,340.842346 8.464376,336.582184 8.464376,332.099091 
	C10.964253,331.896729 13.105451,331.873840 15.191978,331.524445 
	C20.165030,330.691681 22.362589,327.863373 22.126844,322.872711 
	C21.914436,318.376068 19.382448,316.083252 14.193965,315.909454 
	C10.770962,315.794769 7.341002,315.887726 3.591552,315.887726 
	C3.591552,323.427795 3.591552,330.389282 3.591429,338.307556 
M303.725189,328.351349 
	C307.729370,326.911835 309.311005,328.523590 309.220551,332.552948 
	C309.124329,336.839600 309.198914,341.130096 309.198914,345.418884 
	C309.774872,345.724548 310.350830,346.030212 310.926788,346.335846 
	C311.887756,345.121826 313.566528,343.969604 313.677338,342.682404 
	C314.033295,338.547394 313.881348,334.360931 313.788818,330.197388 
	C313.707184,326.526031 311.674805,324.695770 308.027618,324.879303 
	C306.298340,324.966309 304.585632,325.382690 302.879028,325.647705 
	C301.654572,315.943634 301.654572,315.943634 298.051514,316.440186 
	C298.051514,326.034210 298.051514,335.643250 298.051514,345.521027 
	C299.489136,345.521027 300.715973,345.521027 302.031372,345.521027 
	C302.404633,339.921539 302.766449,334.493835 303.725189,328.351349 
M179.198166,339.876892 
	C179.486389,343.052399 180.976776,345.376740 184.299301,345.639435 
	C187.715439,345.909576 191.169571,345.699402 195.021255,345.699402 
	C195.021255,340.540497 195.021255,335.746948 195.021255,330.953400 
	C195.021255,325.993011 195.021255,321.032654 195.021255,315.681366 
	C186.994415,316.353302 192.763428,323.179047 189.832565,325.734253 
	C181.995789,323.596741 179.278931,325.533417 178.996552,333.527802 
	C178.932129,335.352112 179.052002,337.182922 179.198166,339.876892 
M124.015579,385.295837 
	C124.015579,377.208466 124.015579,369.121124 124.015579,360.877777 
	C122.277580,360.962372 121.140732,361.017731 119.522369,361.096497 
	C119.522369,364.323914 119.522369,367.405365 119.522369,370.878174 
	C118.378349,370.546326 117.803329,370.331146 117.208939,370.215027 
	C113.534584,369.497223 110.121376,369.415222 108.836029,373.986084 
	C106.913422,380.823059 108.551666,388.876709 112.138664,390.242798 
	C112.752701,390.476654 113.413834,390.772430 114.042854,390.749939 
	C117.166260,390.638275 120.286194,390.429596 123.805283,390.232819 
	C123.864395,389.148254 123.943718,387.692810 124.015579,385.295837 
M53.957390,389.947052 
	C57.720348,391.216766 61.323387,391.520264 63.097881,387.042206 
	C65.326385,381.418518 63.822506,371.781647 60.689049,370.335938 
	C59.964931,370.001862 59.084290,369.894257 58.272717,369.882263 
	C54.961533,369.833313 51.649197,369.861847 48.196037,369.861847 
	C48.196037,379.580811 48.196037,388.975494 48.196037,398.343506 
	C51.472218,399.524231 52.603939,398.393311 52.473465,395.234802 
	C52.400997,393.480499 52.851734,391.704590 53.957390,389.947052 
M318.187195,332.854797 
	C318.267670,335.512238 318.051788,338.220032 318.492798,340.816223 
	C319.309235,345.622345 323.235718,345.997864 326.975861,345.731781 
	C330.723694,345.465210 334.341766,344.474396 333.879456,338.533508 
	C332.226471,339.114197 330.829865,339.479675 329.547821,340.086945 
	C327.949921,340.843933 326.446472,341.800293 324.902252,342.670563 
	C324.053650,341.010986 323.205048,339.351379 321.911804,336.822235 
	C325.066376,336.822235 326.868042,336.822235 328.669708,336.822235 
	C330.413544,336.822235 332.157379,336.822235 333.836365,336.822235 
	C334.492249,327.853119 333.372894,325.520264 328.278931,324.963135 
	C322.603149,324.342407 318.352325,325.421997 318.187195,332.854797 
M152.659622,328.861847 
	C157.492554,327.170868 158.085678,327.602081 157.621964,332.425781 
	C155.187592,332.899933 152.697632,333.154694 150.360321,333.892853 
	C146.636093,335.069031 146.353195,338.457947 147.184219,341.289093 
	C147.706848,343.069580 149.984299,345.298889 151.731384,345.551758 
	C155.172150,346.049744 158.791748,345.312042 162.766251,345.058044 
	C162.766251,340.146912 163.109497,334.985657 162.667694,329.892548 
	C162.243500,325.002075 158.260681,324.680023 154.401627,324.874664 
	C150.953629,325.048584 147.773270,325.688080 147.805862,331.263733 
	C149.606812,330.523987 150.894592,329.995026 152.659622,328.861847 
M136.414047,369.836517 
	C129.807007,370.215149 128.485168,371.407928 128.094315,377.717712 
	C127.951057,380.030273 128.045517,382.368408 128.185608,384.685516 
	C128.492523,389.761841 132.046326,390.901886 136.199280,390.771881 
	C140.230194,390.645752 143.723724,389.504425 143.636475,383.516296 
	C141.911575,384.103699 140.489014,384.455994 139.186920,385.065643 
	C137.621552,385.798492 136.158707,386.750275 134.651459,387.607269 
	C133.796127,385.970551 132.940781,384.333801 131.577820,381.725739 
	C136.517395,381.725739 139.932693,381.725739 143.257782,381.725739 
	C144.604126,372.981323 143.643845,371.181427 136.414047,369.836517 
M34.755085,390.806061 
	C41.897026,390.410797 42.940903,389.625183 43.470123,383.488983 
	C41.831982,384.110657 40.463860,384.535889 39.180508,385.140930 
	C37.608540,385.882019 36.107521,386.773651 34.575829,387.600189 
	C33.756992,385.937805 32.938156,384.275452 31.733208,381.829193 
	C34.786144,381.829193 36.427795,381.829193 38.069447,381.829193 
	C39.842140,381.829193 41.614838,381.829193 43.294991,381.829193 
	C44.501438,372.988220 43.019463,370.264526 37.203068,369.851227 
	C30.207857,369.354156 28.074951,371.677643 27.975319,379.934021 
	C27.961288,381.096619 28.035141,382.259979 28.050669,383.423218 
	C28.103783,387.402466 29.656513,390.155365 34.755085,390.806061 
M211.460907,331.483002 
	C208.904602,332.259338 206.338577,333.005371 203.794281,333.819214 
	C200.075912,335.008606 199.549271,338.280670 200.404526,341.090118 
	C200.975250,342.964905 203.382889,345.209290 205.278275,345.546448 
	C208.583878,346.134491 212.128448,345.379181 216.021530,345.161835 
	C216.021530,340.547821 216.119614,335.581512 215.991425,330.621094 
	C215.883011,326.425934 213.187820,324.892212 209.362457,324.860718 
	C205.497513,324.828888 201.592682,324.801788 200.658005,331.404449 
	C202.872528,330.442841 204.441223,330.073669 205.620056,329.186523 
	C208.294479,327.173767 210.332596,326.818146 211.460907,331.483002 
M152.452835,380.557373 
	C152.453827,379.726898 152.420639,378.894745 152.462173,378.066284 
	C152.588943,375.537842 152.518753,372.734924 156.192703,372.885315 
	C159.722229,373.029846 159.142807,375.818451 159.168701,378.071075 
	C159.215912,382.178314 159.182129,386.286499 159.182129,390.394287 
	C159.653656,390.701385 160.125168,391.008484 160.596695,391.315582 
	C161.664658,390.296112 163.569977,389.340820 163.653900,388.245850 
	C163.995575,383.789185 164.226242,379.221222 163.555115,374.838654 
	C163.274506,373.006287 160.864548,370.519226 159.030518,370.116699 
	C155.578476,369.358978 151.841782,369.898132 147.965088,369.898132 
	C147.965088,376.193481 148.078690,381.994110 147.922012,387.787384 
	C147.829620,391.203430 149.516571,391.221130 152.452362,390.281586 
	C152.452362,387.432617 152.452362,384.471497 152.452835,380.557373 
M252.671906,390.765472 
	C253.718704,389.918579 255.631668,389.111053 255.672195,388.218445 
	C255.942307,382.272339 255.812317,376.308044 255.812317,369.854919 
	C253.996292,370.016144 252.673096,370.133606 251.178650,370.266296 
	C251.178650,374.586945 251.233414,378.403534 251.158783,382.217590 
	C251.111496,384.633636 251.655243,387.653229 247.902969,387.771332 
	C244.090103,387.891388 244.508026,384.909698 244.462738,382.447906 
	C244.407654,379.453339 244.310837,376.449371 244.479691,373.463470 
	C244.679596,369.928772 243.284241,369.089417 239.965652,370.492249 
	C239.965652,375.159637 239.876205,379.807495 239.989761,384.450378 
	C240.113815,389.523010 242.797974,391.457001 247.901337,390.525879 
	C249.175903,390.293304 250.534607,390.521851 252.671906,390.765472 
M341.955566,376.454620 
	C339.602478,377.189026 337.265533,377.981232 334.892578,378.644592 
	C331.125977,379.697479 330.332581,382.765778 331.162231,385.710083 
	C331.708832,387.649872 333.866425,390.163422 335.662933,390.500671 
	C338.986328,391.124542 342.574036,390.340210 346.253998,390.130951 
	C346.253998,384.980774 346.570770,379.817230 346.164978,374.711090 
	C345.758453,369.595764 341.575989,369.697174 337.846649,369.934418 
	C334.621216,370.139526 331.465393,370.799225 332.046295,376.327301 
	C333.723053,375.461548 335.075012,374.965027 336.191101,374.146729 
	C338.798889,372.234955 340.910309,371.699677 341.955566,376.454620 
M69.321228,371.943512 
	C68.914902,376.666107 67.823387,381.458435 68.294678,386.091766 
	C68.767395,390.739105 73.166389,391.010162 76.903328,390.688568 
	C80.561890,390.373718 83.750916,389.108185 83.118820,383.502411 
	C81.538696,384.115723 80.217949,384.538239 78.979218,385.131927 
	C77.422791,385.877838 75.315689,387.811890 74.550186,387.360626 
	C73.164345,386.543610 72.595970,384.339996 71.174057,381.800354 
	C76.000305,381.800354 79.425201,381.800354 82.758324,381.800354 
	C84.556450,372.050812 81.507179,368.470123 73.116089,370.040985 
	C72.007576,370.248535 70.981895,370.898468 69.321228,371.943512 
M198.379715,380.109772 
	C198.251556,376.252625 199.488815,371.800110 194.157440,370.171509 
	C187.413132,368.111267 183.141968,371.149170 182.921463,378.198181 
	C182.848846,380.519592 182.774841,382.868774 183.037292,385.166870 
	C183.513229,389.334503 186.362152,391.243988 191.447784,390.747864 
	C195.241837,390.377747 198.705917,389.381897 198.103180,383.418213 
	C196.479675,384.116150 195.204681,384.613770 193.974976,385.205536 
	C192.412552,385.957397 190.261383,387.822266 189.483109,387.352661 
	C188.107635,386.522705 187.577744,384.291351 186.237961,381.798004 
	C189.442612,381.798004 191.256577,381.911957 193.049225,381.765381 
	C194.774246,381.624298 196.477203,381.213806 198.379715,380.109772 
M39.612942,336.319733 
	C40.628086,339.128113 40.871128,342.803833 42.832230,344.549530 
	C46.093807,347.452911 53.195503,345.628967 54.755138,342.371246 
	C57.090687,337.492920 55.214920,327.088226 51.678253,325.512238 
	C50.940945,325.183685 50.099415,325.027710 49.289459,324.933136 
	C42.218708,324.107513 40.173378,326.350983 39.612942,336.319733 
M272.024017,339.907806 
	C272.024017,334.956024 272.024017,330.004211 272.024017,324.702759 
	C270.088501,324.955231 268.716034,325.134277 267.585480,325.281738 
	C267.585480,330.731384 267.188293,335.750214 267.791931,340.645630 
	C268.015839,342.461548 270.357635,345.030914 272.138092,345.423889 
	C275.585999,346.184937 279.320770,345.646362 282.903137,345.646362 
	C282.903137,338.468536 282.903137,331.870026 282.903137,325.283691 
	C280.048096,324.341522 278.645874,324.845825 278.820312,328.040985 
	C279.010529,331.524506 279.074402,335.045776 278.759308,338.511139 
	C278.629669,339.936829 277.593231,342.138702 276.561523,342.404449 
	C275.296722,342.730225 273.604614,341.397034 272.024017,339.907806 
M88.635582,390.637512 
	C91.192871,391.243286 92.302010,390.380707 92.177216,387.616608 
	C92.012230,383.962433 91.822418,380.247681 92.328857,376.655609 
	C92.528366,375.240509 94.576103,374.085968 95.782227,372.812775 
	C96.850563,374.154266 98.716400,375.426514 98.840073,376.850067 
	C99.236198,381.410034 98.987228,386.026093 98.987228,390.620483 
	C99.497772,390.889618 100.008316,391.158722 100.518860,391.427856 
	C101.476974,390.382294 103.194565,389.382660 103.261070,388.283142 
	C103.541763,383.642517 103.717926,378.919189 103.092560,374.340790 
	C102.868439,372.699982 100.456612,370.451782 98.725235,370.114807 
	C95.297256,369.447571 91.647896,369.917786 88.057487,369.917786 
	C88.057487,377.002106 88.057487,383.472107 88.635582,390.637512 
M320.180817,390.757416 
	C323.931854,390.138062 326.804871,388.775757 325.786072,382.709656 
	C324.003357,384.160187 322.965332,385.169678 321.769196,385.930695 
	C320.622833,386.660095 319.147095,387.782532 318.123077,387.522675 
	C317.204376,387.289520 316.250732,385.463470 316.110779,384.248230 
	C315.808472,381.622894 315.808899,378.914398 316.112854,376.289398 
	C316.249756,375.107117 317.257538,373.304016 318.145996,373.120941 
	C319.160156,372.911896 320.513275,374.141266 321.660553,374.841492 
	C322.860352,375.573822 323.990540,376.420135 325.151154,377.216583 
	C325.580963,376.801849 326.010773,376.387115 326.440582,375.972382 
	C325.795197,374.409515 325.447723,371.760742 324.448730,371.486633 
	C321.409088,370.652588 317.948242,370.035675 314.995239,370.751923 
	C313.485931,371.117950 312.349884,374.406525 311.715057,376.570679 
	C311.175934,378.408569 311.572388,380.528839 311.600006,382.523529 
	C311.690735,389.072784 312.552551,389.978058 320.180817,390.757416 
M175.405334,382.335999 
	C175.510117,378.105804 174.016174,373.395050 178.350006,371.469147 
	C176.861160,369.204987 175.625793,367.326263 173.173920,363.597534 
	C171.673874,366.549927 170.228256,369.395172 169.180725,371.456940 
	C169.732941,373.455200 170.648392,375.686646 170.909958,377.992279 
	C171.226181,380.779663 170.828445,383.641266 171.027786,386.450287 
	C171.338821,390.833099 175.015900,392.102142 178.372910,389.729340 
	C177.333954,387.468811 176.370010,385.371490 175.405334,382.335999 
M84.958092,324.900146 
	C83.839409,325.632568 81.784988,326.323669 81.750519,327.104004 
	C81.481934,333.183502 81.602043,339.280182 81.602043,345.218689 
	C85.056076,346.485443 86.383423,345.587952 86.168785,342.298950 
	C85.996849,339.664124 85.647522,336.884552 86.285240,334.402557 
	C86.798744,332.403961 88.653809,330.742157 89.946213,328.954437 
	C90.742798,327.852539 91.600494,326.794830 92.521286,325.599762 
	C89.531189,325.390625 87.622047,325.257080 84.958092,324.900146 
M26.605686,340.180115 
	C26.985636,342.722900 25.127506,347.259796 31.138517,345.089081 
	C31.138517,341.684845 31.162319,338.369171 31.131510,335.053955 
	C31.103331,332.021851 31.504885,329.481262 35.266541,328.738525 
	C36.135220,328.567017 36.656643,326.636841 37.229279,325.694611 
	C33.316883,325.694611 30.116201,325.694611 26.605083,325.694611 
	C26.605083,329.981995 26.605083,334.614777 26.605686,340.180115 
M343.390076,340.203796 
	C343.391357,339.377258 343.351379,338.548279 343.401001,337.724640 
	C343.626953,333.972473 342.190155,329.367920 348.255737,328.576111 
	C348.663422,328.522888 348.794861,326.353394 348.960358,325.598663 
	C345.162018,325.382629 342.186432,325.213409 339.155029,325.040985 
	C339.155029,332.099945 339.155029,338.804443 339.155029,345.417908 
	C343.887299,346.831207 343.441132,343.790466 343.390076,340.203796 
M288.654877,333.487427 
	C288.655487,336.479126 288.751556,339.474609 288.631805,342.461487 
	C288.491791,345.954132 290.063110,346.348389 292.767212,345.236023 
	C292.767212,335.412964 292.767212,325.826355 292.767212,316.248566 
	C289.998596,315.447266 288.491943,315.761017 288.636200,319.033905 
	C288.833557,323.511169 288.665863,328.004486 288.654877,333.487427 
M261.141113,386.222351 
	C261.340240,390.929321 261.340240,390.929321 265.859314,390.109894 
	C265.859314,384.586792 265.714203,378.983032 265.910278,373.391266 
	C266.041382,369.652557 264.383484,369.323944 261.140442,370.360931 
	C261.140442,375.406036 261.140442,380.345062 261.141113,386.222351 
M301.995331,388.108032 
	C302.968353,389.146301 303.941345,390.184570 304.914368,391.222839 
	C305.385864,390.905212 305.857391,390.587555 306.328888,390.269928 
	C306.328888,384.322998 306.486633,378.367859 306.178436,372.436951 
	C306.125183,371.411591 304.096924,370.488800 302.980957,369.518616 
	C302.651764,369.918701 302.322601,370.318756 301.993439,370.718842 
	C301.993439,376.204346 301.993439,381.689850 301.995331,388.108032 
M267.164551,360.855743 
	C262.606232,359.923706 262.436005,363.637543 261.054962,366.547516 
	C265.628540,367.312805 266.642822,364.100128 267.164551,360.855743 
z"/>
<path fill="#0B5C9F" opacity="1.000000" stroke="none" 
	d="
M231.600006,1.000001 
	C237.944366,2.001958 243.911652,2.884952 249.829346,4.025350 
	C285.747589,10.947149 314.253204,28.345608 329.382507,62.920685 
	C341.268127,90.082870 341.279846,118.183289 332.615112,146.381531 
	C332.185242,147.780472 331.664764,149.151596 330.798462,151.658356 
	C349.613525,136.271729 370.061707,129.328705 393.406250,132.006821 
	C417.134216,134.728943 434.539001,147.625809 448.932373,167.401352 
	C448.932373,155.946442 448.932373,145.738998 448.932373,135.284668 
	C457.476746,135.284668 465.561310,135.284668 473.995239,135.284668 
	C473.995239,209.395126 473.995239,283.443207 473.995239,357.794830 
	C465.923248,357.794830 457.819427,357.794830 449.217468,357.794830 
	C449.217468,329.550934 449.217468,301.167053 449.217468,271.473846 
	C446.066071,275.374298 443.741425,278.254242 441.413879,281.131836 
	C407.386108,323.200745 347.742950,314.707977 320.056366,277.023193 
	C301.423218,251.661301 298.689056,223.247253 305.797333,193.323380 
	C306.269806,191.334518 306.682892,189.331543 307.346283,186.326309 
	C305.568787,187.439468 304.700836,187.855392 303.982361,188.451447 
	C281.559143,207.053986 255.188889,215.337341 226.649582,216.845428 
	C207.366196,217.864426 188.003998,217.393372 168.676987,217.583450 
	C166.686356,217.603043 164.695358,217.586090 162.059875,217.586090 
	C162.059875,233.144104 162.059875,248.421478 162.059875,263.698853 
	C162.059875,278.986084 162.059875,294.273285 162.059875,309.787842 
	C139.356186,309.787842 117.085358,309.787842 94.123314,309.787842 
	C94.123314,207.543945 94.123314,105.297798 94.633179,2.562864 
	C137.745361,2.052820 180.347687,2.043082 222.949921,1.967748 
	C224.633850,1.964771 226.316666,1.336773 228.000000,1.000000 
	C229.066666,1.000000 230.133347,1.000000 231.600006,1.000001 
M351.952484,273.588440 
	C377.533112,292.845978 411.161469,289.772552 432.659729,266.212280 
	C453.539520,243.329803 455.863220,206.049301 437.993927,180.633224 
	C416.939880,150.687378 375.154022,145.180069 348.649780,169.111343 
	C334.721802,181.687241 329.175812,198.153900 328.559174,216.470398 
	C327.811401,238.680847 333.919067,258.221863 351.952484,273.588440 
M268.882904,99.906837 
	C266.872986,88.810867 261.807404,79.561546 252.453232,72.960358 
	C242.889694,66.211403 231.977203,63.307487 220.517944,63.068512 
	C201.874786,62.679718 183.218735,62.903877 164.568115,62.896374 
	C163.805008,62.896069 163.041809,63.170734 162.412125,63.291660 
	C162.412125,94.673096 162.412125,125.717712 162.412125,157.029846 
	C174.568527,157.029846 186.378067,157.154602 198.183624,156.991516 
	C208.157394,156.853729 218.255981,157.280609 228.070114,155.866714 
	C247.016815,153.137085 261.697357,143.635452 267.266693,124.426132 
	C269.419495,117.000755 268.502625,108.685364 268.882904,99.906837 
z"/>
<path fill="#0A5B9E" opacity="1.000000" stroke="none" 
	d="
M68.827744,2.106074 
	C68.873077,3.436311 68.958000,4.766546 68.958099,6.096786 
	C68.965172,105.886559 68.965553,205.676331 68.966438,305.466095 
	C68.966454,306.777252 68.966446,308.088409 68.966446,310.005798 
	C46.442116,310.005798 24.189711,310.005798 1.468652,310.002899 
	C1.000000,207.645767 1.000000,105.291542 1.468642,2.473184 
	C24.234104,2.041393 46.530922,2.073734 68.827744,2.106074 
z"/>
<path fill="#0A5B9E" opacity="1.000000" stroke="none" 
	d="
M1.000000,402.333313 
	C2.826387,402.061127 4.652771,402.175690 6.479161,402.175781 
	C159.967407,402.183563 313.455658,402.182434 466.943909,402.181946 
	C468.915894,402.181946 470.887848,402.181946 473.497833,402.181946 
	C473.497833,407.176331 473.497833,411.790466 472.786713,416.706360 
	C317.395264,417.005371 162.714920,417.003235 8.034583,416.994598 
	C6.039063,416.994476 4.043548,416.911743 2.016014,416.416199 
	C1.655998,411.976532 1.327999,407.988281 1.000000,404.000000 
	C1.000000,403.555542 1.000000,403.111115 1.000000,402.333313 
z"/>
<path fill="#1765A5" opacity="1.000000" stroke="none" 
	d="
M525.000000,215.550018 
	C521.018188,222.511017 514.679871,223.624161 507.791595,223.582214 
	C499.988068,223.534698 492.184052,223.571243 484.153870,223.571243 
	C484.153870,221.699661 484.153870,220.254303 484.153870,218.167938 
	C491.476105,218.167938 498.749237,218.182434 506.022278,218.159973 
	C508.520081,218.152252 511.034882,218.216980 513.511353,217.957230 
	C517.639587,217.524277 520.268372,215.593323 520.255554,210.933701 
	C520.242920,206.352448 517.860535,204.041397 513.599365,203.894852 
	C505.113953,203.603043 496.617889,203.620789 488.126160,203.515244 
	C486.976013,203.500946 485.825531,203.513260 484.217834,203.513260 
	C484.108063,201.738113 484.013031,200.200882 483.929382,198.848343 
	C494.582062,198.848343 504.853760,198.642456 515.110901,198.939560 
	C519.879578,199.077682 523.008362,202.076859 524.672119,206.872070 
	C525.000000,209.700012 525.000000,212.400024 525.000000,215.550018 
z"/>
<path fill="#1865A6" opacity="1.000000" stroke="none" 
	d="
M525.000000,183.550018 
	C521.846924,187.981491 518.462524,191.526276 512.205261,190.451050 
	C512.131104,188.995300 512.051575,187.434586 511.975769,185.946533 
	C518.873474,184.250259 520.772827,182.488495 519.900635,177.688812 
	C519.541016,175.709656 517.932556,172.983307 516.297791,172.462540 
	C514.360413,171.845398 511.031586,172.507751 509.645325,173.925385 
	C507.159790,176.467117 505.685120,179.993835 503.770325,183.098007 
	C500.100922,189.046738 495.670349,190.953140 490.006378,189.039246 
	C485.095886,187.379990 482.448090,182.441193 483.050873,176.065567 
	C483.656219,169.662811 487.209778,166.837494 494.633392,167.144043 
	C494.733582,168.525208 494.836700,169.946503 494.960144,171.648331 
	C494.045868,171.924774 493.312073,172.229202 492.548401,172.363251 
	C489.239410,172.944000 487.253021,174.921646 487.864227,178.213547 
	C488.238922,180.231598 489.438477,182.871307 491.057770,183.714630 
	C494.006104,185.250122 496.942047,183.846954 498.749725,180.980698 
	C500.609985,178.031128 502.179016,174.898483 504.023956,171.938507 
	C506.535980,167.908340 510.264282,165.967697 514.997009,166.477356 
	C519.965210,167.012360 523.280640,169.652237 524.666809,174.866211 
	C525.000000,177.700012 525.000000,180.400024 525.000000,183.550018 
z"/>
<path fill="#F8FCFD" opacity="1.000000" stroke="none" 
	d="
M2.048029,416.867584 
	C4.043548,416.911743 6.039063,416.994476 8.034583,416.994598 
	C162.714920,417.003235 317.395264,417.005371 472.538940,417.037384 
	C473.002258,417.066711 473.000641,417.533356 473.000305,417.766663 
	C315.666656,418.000000 158.333328,418.000000 1.266510,417.502533 
	C1.704690,416.959259 1.876360,416.913422 2.048029,416.867584 
z"/>
<path fill="#1462A3" opacity="1.000000" stroke="none" 
	d="
M525.000000,316.562500 
	C522.014465,323.131348 516.818359,325.186768 510.356537,325.065887 
	C505.026703,324.966156 499.677856,325.269562 494.366425,324.934845 
	C484.977448,324.343140 479.757446,314.598755 484.238861,306.278412 
	C486.465546,302.144409 490.226562,301.478516 494.775452,302.088135 
	C494.844208,303.588257 494.909668,305.016815 494.943939,305.765076 
	C492.355499,307.342773 489.459259,308.149658 488.270325,310.033844 
	C485.854340,313.862610 488.423004,318.802124 493.112518,319.281219 
	C499.216675,319.904846 505.414948,319.980499 511.553528,319.759308 
	C515.477112,319.617920 519.863098,319.221954 520.193359,313.594696 
	C520.512085,308.164673 516.769531,307.015503 512.299194,306.455139 
	C512.299194,304.731110 512.299194,303.153839 512.299194,301.581207 
	C519.358215,301.002258 522.694153,303.225281 524.708923,309.793182 
	C525.000000,312.041656 525.000000,314.083344 525.000000,316.562500 
z"/>
<path fill="#6AA1CD" opacity="1.000000" stroke="none" 
	d="
M227.531342,1.000000 
	C226.316666,1.336773 224.633850,1.964771 222.949921,1.967748 
	C180.347687,2.043082 137.745361,2.052820 94.691406,2.106464 
	C94.187294,1.951681 94.134834,1.764504 94.041183,1.288663 
	C138.354233,1.000000 182.708450,1.000000 227.531342,1.000000 
z"/>
<path fill="#6AA1CD" opacity="1.000000" stroke="none" 
	d="
M68.897514,1.833714 
	C46.530922,2.073734 24.234104,2.041393 1.468642,2.004526 
	C2.322693,1.666667 3.644556,1.046680 4.968203,1.042848 
	C25.999563,0.981959 47.031147,1.000000 68.531342,1.000000 
	C68.989098,1.187118 68.978188,1.374237 68.897514,1.833714 
z"/>
<path fill="#4888BE" opacity="1.000000" stroke="none" 
	d="
M2.016013,416.416199 
	C1.876360,416.913422 1.704690,416.959259 1.266510,417.002533 
	C1.000000,412.975464 1.000000,408.950897 1.000000,404.463196 
	C1.327999,407.988281 1.655998,411.976532 2.016013,416.416199 
z"/>
<path fill="#1966A6" opacity="1.000000" stroke="none" 
	d="
M519.885315,254.822296 
	C510.511139,257.698364 501.526093,260.468689 492.541016,263.238983 
	C492.574707,263.535034 492.608398,263.831055 492.642120,264.127075 
	C502.777039,264.127075 512.911926,264.127075 523.462341,264.127075 
	C523.691589,265.927246 523.863953,267.281403 524.086243,269.027191 
	C510.635529,269.027191 497.578613,269.027191 484.210724,269.027191 
	C484.210724,266.471436 484.210724,263.895203 484.210724,260.921753 
	C494.485016,257.797363 504.888916,254.633591 515.292847,251.469803 
	C515.319702,251.119217 515.346497,250.768616 515.373352,250.418030 
	C504.948181,247.202591 494.522949,243.987152 484.122009,240.779205 
	C484.122009,237.848114 484.122009,235.235077 484.122009,232.356934 
	C497.397675,232.356934 510.460449,232.356934 523.744507,232.356934 
	C523.744507,234.057129 523.744507,235.493301 523.744507,237.538452 
	C513.277771,237.538452 502.937958,237.538452 492.598114,237.538452 
	C492.549500,237.909698 492.500885,238.280945 492.452240,238.652206 
	C501.722168,241.562271 511.026062,244.371948 520.227600,247.484207 
	C521.708862,247.985214 522.733887,249.835052 523.969849,251.061371 
	C522.738037,252.279755 521.506226,253.498138 519.885315,254.822296 
z"/>
<path fill="#FF162A" opacity="1.000000" stroke="none" 
	d="
M256.963928,334.026093 
	C256.963928,330.241272 256.963928,326.943176 256.963928,323.645081 
	C256.672729,323.573059 256.381500,323.501038 256.090302,323.429047 
	C254.436554,329.210968 252.936462,335.043945 251.041336,340.745636 
	C250.422272,342.608154 249.070496,345.156281 247.537735,345.597351 
	C244.071991,346.594635 244.462219,343.052948 243.860138,341.062134 
	C242.098846,335.238525 240.499756,329.365845 237.883865,323.589447 
	C237.883865,330.851410 237.883865,338.113373 237.883865,345.375366 
	C237.408844,345.691711 236.933838,346.008087 236.458817,346.324463 
	C235.369675,345.311096 233.364380,344.323395 233.335205,343.280396 
	C233.084671,334.324554 233.191376,325.358673 233.191376,316.477325 
	C241.068115,315.057800 241.077835,315.055267 242.965332,322.298126 
	C244.299820,327.418945 245.603470,332.547791 247.837753,337.734314 
	C249.215057,332.613190 250.612640,327.497437 251.964752,322.369659 
	C253.828125,315.303009 253.813416,315.299133 261.806824,316.299377 
	C261.806824,325.338806 261.920624,334.459442 261.640930,343.567963 
	C261.611084,344.540253 259.283112,345.441956 256.963959,347.159332 
	C256.963959,341.772675 256.963959,338.142761 256.963928,334.026093 
z"/>
<path fill="#0F5EA1" opacity="1.000000" stroke="none" 
	d="
M491.045715,339.029175 
	C488.578461,339.028595 486.594879,339.028595 484.265656,339.028595 
	C484.119659,337.426605 483.991791,336.023834 483.832489,334.275879 
	C497.148376,334.275879 510.226929,334.275879 523.682678,334.275879 
	C523.761963,335.661865 523.841492,337.053040 523.948792,338.929565 
	C517.889771,338.929565 512.132568,338.929565 506.074402,338.929565 
	C506.074402,343.769470 506.074402,348.147400 506.074402,352.980652 
	C511.963654,352.980652 517.725525,352.980652 523.703552,352.980652 
	C523.703552,354.824402 523.703552,356.217499 523.703552,357.857605 
	C510.558777,357.857605 497.618713,357.857605 484.312866,357.857605 
	C484.312866,356.431000 484.312866,354.923523 484.312866,352.960327 
	C489.828094,352.960327 495.251373,352.960327 500.860535,352.960327 
	C500.860535,348.243378 500.860535,343.970825 500.860535,339.029724 
	C497.727692,339.029724 494.628510,339.029724 491.045715,339.029175 
z"/>
<path fill="#0F5EA1" opacity="1.000000" stroke="none" 
	d="
M508.367035,152.953384 
	C513.644043,152.963669 518.456787,152.963669 523.627808,152.963669 
	C523.756592,154.603333 523.865967,155.995285 524.024658,158.015228 
	C517.106873,158.015228 510.497162,158.015213 503.887451,158.015213 
	C497.420715,158.015213 490.954010,158.015228 484.061737,158.015228 
	C484.061737,152.926758 483.752289,148.132477 484.144287,143.396240 
	C484.582123,138.105942 488.689880,135.137054 494.761230,135.033005 
	C500.944885,134.927032 505.039368,137.927078 505.930267,143.458923 
	C506.271790,145.579453 505.979004,147.800354 506.298370,149.926987 
	C506.457825,150.988724 507.344788,151.941208 508.367035,152.953384 
M499.079376,141.351273 
	C496.119293,141.561935 491.758270,140.665085 490.517303,142.234818 
	C488.499573,144.787155 488.523224,148.953308 487.641693,152.619537 
	C493.238312,152.619537 497.478668,152.619537 502.913910,152.619537 
	C501.700409,148.590240 500.688477,145.230225 499.079376,141.351273 
z"/>
<path fill="#FF0F24" opacity="1.000000" stroke="none" 
	d="
M122.437752,325.151917 
	C125.490372,325.457947 128.133087,325.885010 131.562897,326.439301 
	C132.285492,326.161682 133.922699,325.141937 135.652451,324.948090 
	C139.440765,324.523682 142.257706,325.748047 142.281708,330.264191 
	C142.303802,334.422821 142.597061,338.598450 142.283112,342.729492 
	C142.186813,343.996521 140.481659,345.141296 139.513260,346.342041 
	C138.962601,346.027618 138.411942,345.713196 137.861282,345.398743 
	C137.861282,340.944092 138.101059,336.469086 137.726288,332.046173 
	C137.601517,330.573669 135.901337,329.234650 134.921356,327.834625 
	C133.627884,329.223572 131.401855,330.500488 131.218979,332.022858 
	C130.707520,336.280731 131.040939,340.640045 131.040939,345.474579 
	C129.561478,345.541077 128.254074,345.599823 126.571968,345.675385 
	C126.571968,340.899841 126.872513,336.561218 126.416389,332.303650 
	C126.246277,330.715759 124.537506,328.370178 123.129616,328.030396 
	C120.242775,327.333649 119.761772,329.803894 119.780731,332.191101 
	C119.814888,336.491791 119.790398,340.792938 119.790398,345.429810 
	C118.088844,345.429810 116.735786,345.429810 115.177185,345.429810 
	C115.177185,338.674927 115.177185,332.066223 115.177185,325.272949 
	C117.502647,325.272949 119.765244,325.272949 122.437752,325.151917 
z"/>
<path fill="#1463A4" opacity="1.000000" stroke="none" 
	d="
M519.827148,294.277008 
	C507.719971,294.277527 496.093292,294.277527 484.190918,294.277527 
	C484.190918,287.658752 484.190918,281.391754 484.190918,275.107361 
	C488.397369,274.110046 488.400909,274.110046 488.415009,279.522400 
	C488.422791,282.509888 488.416382,285.497437 488.416382,288.778961 
	C492.614349,288.778961 496.536255,288.778961 500.868927,288.778961 
	C500.868927,284.476105 500.868927,280.214386 500.868927,276.066803 
	C505.753387,274.755066 505.756348,274.755066 505.769348,280.052887 
	C505.776245,282.857117 505.770599,285.661346 505.770599,288.954590 
	C511.860352,288.954590 517.607605,288.954590 523.397583,288.954590 
	C524.366272,292.336121 524.563171,294.706635 519.827148,294.277008 
z"/>
<path fill="#FF1328" opacity="1.000000" stroke="none" 
	d="
M229.934296,390.807037 
	C215.472244,390.848663 214.889069,390.273590 214.860291,376.325287 
	C214.856857,374.664520 214.876099,373.002716 214.930527,371.342926 
	C215.216919,362.606750 220.281540,358.832123 228.753235,361.152710 
	C232.058533,362.058136 234.408859,364.051819 234.441727,367.794250 
	C234.499191,374.340332 234.457764,380.887299 234.457764,387.810730 
	C234.535431,387.857117 235.753098,388.584503 236.970764,389.311829 
	C235.612701,389.814392 234.279831,390.411621 232.886673,390.782257 
	C232.111115,390.988647 231.235168,390.817688 229.934296,390.807037 
M227.022995,364.136353 
	C220.726013,363.584747 219.861191,364.308258 219.807068,370.301392 
	C219.771042,374.291840 219.827728,378.283264 219.777191,382.273407 
	C219.734985,385.604675 221.006805,387.726044 224.609985,387.839539 
	C228.498779,387.962036 229.912811,385.723480 229.929367,382.191437 
	C229.949646,377.868286 230.155823,373.532318 229.874725,369.228455 
	C229.768723,367.605591 228.525314,366.057007 227.022995,364.136353 
z"/>
<path fill="#FF0A20" opacity="1.000000" stroke="none" 
	d="
M21.439165,388.246338 
	C15.595248,389.602234 10.037662,390.662384 3.938699,391.825775 
	C3.938699,380.838867 3.938699,371.124786 3.938699,361.420502 
	C4.261966,361.251740 4.552513,360.961456 4.822465,360.979492 
	C10.601429,361.365509 19.118025,358.236511 21.222830,364.301300 
	C23.682613,371.388885 21.751587,380.000275 21.439165,388.246338 
M8.101109,379.434387 
	C8.101109,382.186646 8.101109,384.938934 8.101109,387.629913 
	C17.615328,388.286438 18.680445,387.309082 18.684017,378.614929 
	C18.684835,376.624481 18.686705,374.634003 18.682997,372.643555 
	C18.667076,364.095032 17.414133,363.037415 8.101122,364.219818 
	C8.101122,368.913757 8.101122,373.682922 8.101109,379.434387 
z"/>
<path fill="#FF0D22" opacity="1.000000" stroke="none" 
	d="
M60.213028,334.997437 
	C60.245090,325.432983 61.397148,324.480988 70.203041,325.584015 
	C71.932182,325.800568 73.778267,325.083557 76.053581,324.719910 
	C76.053581,333.103699 76.233551,341.042145 75.986763,348.967285 
	C75.836288,353.799866 71.912437,354.651062 68.148560,354.718048 
	C64.127190,354.789703 60.995914,353.278687 61.044987,347.659882 
	C62.528278,348.100586 63.812283,348.308075 64.929779,348.855499 
	C66.547081,349.647644 68.043846,350.685883 69.592018,351.619141 
	C70.346954,349.940918 71.171219,348.288757 71.817337,346.569580 
	C72.029007,346.006348 71.777946,345.269165 71.737389,344.593048 
	C62.505360,347.053009 60.359447,345.330994 60.213028,334.997437 
M70.139549,328.152832 
	C66.406990,327.137756 64.831909,328.669006 64.979858,332.415131 
	C65.071335,334.731537 64.683571,337.115448 65.118111,339.351044 
	C65.368690,340.640259 67.041924,342.767120 67.699249,342.635895 
	C69.161079,342.344025 71.455688,340.928589 71.515068,339.865265 
	C71.721985,336.160553 71.121758,332.410736 70.139549,328.152832 
z"/>
<path fill="#FF0D22" opacity="1.000000" stroke="none" 
	d="
M3.591491,337.829163 
	C3.591552,330.389282 3.591552,323.427795 3.591552,315.887726 
	C7.341002,315.887726 10.770962,315.794769 14.193965,315.909454 
	C19.382448,316.083252 21.914436,318.376068 22.126844,322.872711 
	C22.362589,327.863373 20.165030,330.691681 15.191978,331.524445 
	C13.105451,331.873840 10.964253,331.896729 8.464376,332.099091 
	C8.464376,336.582184 8.464376,340.842346 8.464376,345.444275 
	C6.702537,345.444275 5.346685,345.444275 3.591429,345.444275 
	C3.591429,342.916321 3.591429,340.611938 3.591491,337.829163 
M16.887278,320.953674 
	C14.335047,319.994202 11.782816,319.034729 8.567199,317.825897 
	C8.567199,322.309631 8.567199,325.381805 8.567199,328.418091 
	C16.328632,329.495300 17.309065,328.708618 16.887278,320.953674 
z"/>
<path fill="#FF1328" opacity="1.000000" stroke="none" 
	d="
M303.426697,328.708740 
	C302.766449,334.493835 302.404633,339.921539 302.031372,345.521027 
	C300.715973,345.521027 299.489136,345.521027 298.051514,345.521027 
	C298.051514,335.643250 298.051514,326.034210 298.051514,316.440186 
	C301.654572,315.943634 301.654572,315.943634 302.879028,325.647705 
	C304.585632,325.382690 306.298340,324.966309 308.027618,324.879303 
	C311.674805,324.695770 313.707184,326.526031 313.788818,330.197388 
	C313.881348,334.360931 314.033295,338.547394 313.677338,342.682404 
	C313.566528,343.969604 311.887756,345.121826 310.926788,346.335846 
	C310.350830,346.030212 309.774872,345.724548 309.198914,345.418884 
	C309.198914,341.130096 309.124329,336.839600 309.220551,332.552948 
	C309.311005,328.523590 307.729370,326.911835 303.426697,328.708740 
z"/>
<path fill="#FF0F24" opacity="1.000000" stroke="none" 
	d="
M179.142609,339.443817 
	C179.052002,337.182922 178.932129,335.352112 178.996552,333.527802 
	C179.278931,325.533417 181.995789,323.596741 189.827881,325.731934 
	C192.763428,323.179047 186.994415,316.353302 195.021255,315.681366 
	C195.021255,321.032654 195.021255,325.993011 195.021255,330.953400 
	C195.021255,335.746948 195.021255,340.540497 195.021255,345.699402 
	C191.169571,345.699402 187.715439,345.909576 184.299301,345.639435 
	C180.976776,345.376740 179.486389,343.052399 179.142609,339.443817 
M190.621414,333.671692 
	C190.637115,330.983337 190.932999,327.833649 187.056015,327.881805 
	C183.007507,327.932098 183.875885,331.310791 183.783936,333.838257 
	C183.711685,335.823853 183.461182,337.883240 183.884995,339.776642 
	C184.142349,340.926422 185.558228,342.663452 186.405548,342.636292 
	C187.678528,342.595520 189.544052,341.503021 190.011215,340.380554 
	C190.735855,338.639496 190.495224,336.496735 190.621414,333.671692 
z"/>
<path fill="#FF0E23" opacity="1.000000" stroke="none" 
	d="
M124.019310,385.766602 
	C123.943718,387.692810 123.864395,389.148254 123.805283,390.232819 
	C120.286194,390.429596 117.166260,390.638275 114.042854,390.749939 
	C113.413834,390.772430 112.752701,390.476654 112.138664,390.242798 
	C108.551666,388.876709 106.913422,380.823059 108.836029,373.986084 
	C110.121376,369.415222 113.534584,369.497223 117.208939,370.215027 
	C117.803329,370.331146 118.378349,370.546326 119.522369,370.878174 
	C119.522369,367.405365 119.522369,364.323914 119.522369,361.096497 
	C121.140732,361.017731 122.277580,360.962372 124.015579,360.877777 
	C124.015579,369.121124 124.015579,377.208466 124.019310,385.766602 
M116.302986,387.876434 
	C119.519073,386.048889 121.255318,375.512299 118.431183,373.629822 
	C117.368553,372.921478 115.011879,372.958832 113.949081,373.685608 
	C111.434433,375.405243 112.749733,385.822662 116.302986,387.876434 
z"/>
<path fill="#FF1025" opacity="1.000000" stroke="none" 
	d="
M53.512024,389.942749 
	C52.851734,391.704590 52.400997,393.480499 52.473465,395.234802 
	C52.603939,398.393311 51.472218,399.524231 48.196037,398.343506 
	C48.196037,388.975494 48.196037,379.580811 48.196037,369.861847 
	C51.649197,369.861847 54.961533,369.833313 58.272717,369.882263 
	C59.084290,369.894257 59.964931,370.001862 60.689049,370.335938 
	C63.822506,371.781647 65.326385,381.418518 63.097881,387.042206 
	C61.323387,391.520264 57.720348,391.216766 53.512024,389.942749 
M52.354393,382.973663 
	C53.575539,384.602020 54.796684,386.230347 56.017838,387.858673 
	C57.089794,386.123688 58.611946,384.507751 59.110939,382.621216 
	C59.642200,380.612671 59.599972,378.239990 59.051350,376.233215 
	C58.687412,374.901978 56.928127,372.979401 55.911530,373.048889 
	C54.677643,373.133209 52.992859,374.846191 52.546394,376.198822 
	C51.953117,377.996185 52.367310,380.126099 52.354393,382.973663 
z"/>
<path fill="#FF152A" opacity="1.000000" stroke="none" 
	d="
M318.177368,332.419434 
	C318.352325,325.421997 322.603149,324.342407 328.278931,324.963135 
	C333.372894,325.520264 334.492249,327.853119 333.836365,336.822235 
	C332.157379,336.822235 330.413544,336.822235 328.669708,336.822235 
	C326.868042,336.822235 325.066376,336.822235 321.911804,336.822235 
	C323.205048,339.351379 324.053650,341.010986 324.902252,342.670563 
	C326.446472,341.800293 327.949921,340.843933 329.547821,340.086945 
	C330.829865,339.479675 332.226471,339.114197 333.879456,338.533508 
	C334.341766,344.474396 330.723694,345.465210 326.975861,345.731781 
	C323.235718,345.997864 319.309235,345.622345 318.492798,340.816223 
	C318.051788,338.220032 318.267670,335.512238 318.177368,332.419434 
M325.447296,327.852448 
	C322.064575,328.885864 322.718201,331.240936 323.150116,333.568787 
	C325.451447,333.568787 327.349701,333.568787 329.226929,333.568787 
	C329.421448,329.417755 329.421448,329.417755 325.447296,327.852448 
z"/>
<path fill="#FF172B" opacity="1.000000" stroke="none" 
	d="
M152.420990,329.163940 
	C150.894592,329.995026 149.606812,330.523987 147.805862,331.263733 
	C147.773270,325.688080 150.953629,325.048584 154.401627,324.874664 
	C158.260681,324.680023 162.243500,325.002075 162.667694,329.892548 
	C163.109497,334.985657 162.766251,340.146912 162.766251,345.058044 
	C158.791748,345.312042 155.172150,346.049744 151.731384,345.551758 
	C149.984299,345.298889 147.706848,343.069580 147.184219,341.289093 
	C146.353195,338.457947 146.636093,335.069031 150.360321,333.892853 
	C152.697632,333.154694 155.187592,332.899933 157.621964,332.425781 
	C158.085678,327.602081 157.492554,327.170868 152.420990,329.163940 
M155.841217,335.884460 
	C154.360184,337.142517 152.731583,338.280884 151.528030,339.764099 
	C151.299347,340.045959 152.679001,342.459473 153.448517,342.534363 
	C154.656784,342.652008 156.828705,341.858734 157.066620,341.018890 
	C157.513229,339.442474 156.869080,337.557007 155.841217,335.884460 
z"/>
<path fill="#FF172B" opacity="1.000000" stroke="none" 
	d="
M136.836624,369.839905 
	C143.643845,371.181427 144.604126,372.981323 143.257782,381.725739 
	C139.932693,381.725739 136.517395,381.725739 131.577820,381.725739 
	C132.940781,384.333801 133.796127,385.970551 134.651459,387.607269 
	C136.158707,386.750275 137.621552,385.798492 139.186920,385.065643 
	C140.489014,384.455994 141.911575,384.103699 143.636475,383.516296 
	C143.723724,389.504425 140.230194,390.645752 136.199280,390.771881 
	C132.046326,390.901886 128.492523,389.761841 128.185608,384.685516 
	C128.045517,382.368408 127.951057,380.030273 128.094315,377.717712 
	C128.485168,371.407928 129.807007,370.215149 136.836624,369.839905 
M133.492325,373.701202 
	C133.065170,375.171234 132.638016,376.641266 132.076187,378.574799 
	C134.830795,378.574799 136.847046,378.574799 138.936661,378.574799 
	C139.530609,374.516327 138.871429,371.969910 133.492325,373.701202 
z"/>
<path fill="#FF152A" opacity="1.000000" stroke="none" 
	d="
M34.354683,390.741760 
	C29.656513,390.155365 28.103783,387.402466 28.050669,383.423218 
	C28.035141,382.259979 27.961288,381.096619 27.975319,379.934021 
	C28.074951,371.677643 30.207857,369.354156 37.203068,369.851227 
	C43.019463,370.264526 44.501438,372.988220 43.294991,381.829193 
	C41.614838,381.829193 39.842140,381.829193 38.069447,381.829193 
	C36.427795,381.829193 34.786144,381.829193 31.733208,381.829193 
	C32.938156,384.275452 33.756992,385.937805 34.575829,387.600189 
	C36.107521,386.773651 37.608540,385.882019 39.180508,385.140930 
	C40.463860,384.535889 41.831982,384.110657 43.470123,383.488983 
	C42.940903,389.625183 41.897026,390.410797 34.354683,390.741760 
M38.272339,378.754913 
	C38.223820,377.013275 38.503372,375.152283 37.937992,373.598724 
	C37.755135,373.096283 34.714931,372.809601 34.108791,373.465576 
	C33.019161,374.644806 32.781406,376.611176 31.964090,378.865540 
	C34.545959,378.865540 35.992897,378.865540 38.272339,378.754913 
z"/>
<path fill="#FF1328" opacity="1.000000" stroke="none" 
	d="
M211.486649,331.039124 
	C210.332596,326.818146 208.294479,327.173767 205.620056,329.186523 
	C204.441223,330.073669 202.872528,330.442841 200.658005,331.404449 
	C201.592682,324.801788 205.497513,324.828888 209.362457,324.860718 
	C213.187820,324.892212 215.883011,326.425934 215.991425,330.621094 
	C216.119614,335.581512 216.021530,340.547821 216.021530,345.161835 
	C212.128448,345.379181 208.583878,346.134491 205.278275,345.546448 
	C203.382889,345.209290 200.975250,342.964905 200.404526,341.090118 
	C199.549271,338.280670 200.075912,335.008606 203.794281,333.819214 
	C206.338577,333.005371 208.904602,332.259338 211.486649,331.039124 
M209.525635,342.114166 
	C210.339142,340.223389 211.152649,338.332642 212.172806,335.961609 
	C207.986816,335.867584 204.851074,335.791779 205.007523,339.841644 
	C205.043671,340.777435 207.505753,341.619476 209.525635,342.114166 
z"/>
<path fill="#FF152A" opacity="1.000000" stroke="none" 
	d="
M288.132690,373.059235 
	C287.699463,377.787323 287.041687,382.509247 286.911133,387.245697 
	C286.822540,390.459869 285.818817,391.547943 282.183563,390.211700 
	C282.183563,386.111206 282.459839,381.799347 282.044464,377.555176 
	C281.883453,375.910156 280.396210,373.357483 279.097778,373.065521 
	C275.856049,372.336639 275.544250,375.201447 275.476990,377.600159 
	C275.383636,380.928528 275.704803,384.291351 275.320618,387.577728 
	C275.161774,388.936676 273.635284,390.135681 272.730804,391.407440 
	C272.234894,391.119202 271.738953,390.830963 271.243042,390.542694 
	C271.243042,383.803528 271.243042,377.064362 271.243042,369.255157 
	C276.441315,370.239960 281.344604,371.168854 286.779114,372.328308 
	C287.538605,372.800934 287.812744,372.967743 288.132690,373.059235 
z"/>
<path fill="#FF162A" opacity="1.000000" stroke="none" 
	d="
M152.452606,381.033875 
	C152.452362,384.471497 152.452362,387.432617 152.452362,390.281586 
	C149.516571,391.221130 147.829620,391.203430 147.922012,387.787384 
	C148.078690,381.994110 147.965088,376.193481 147.965088,369.898132 
	C151.841782,369.898132 155.578476,369.358978 159.030518,370.116699 
	C160.864548,370.519226 163.274506,373.006287 163.555115,374.838654 
	C164.226242,379.221222 163.995575,383.789185 163.653900,388.245850 
	C163.569977,389.340820 161.664658,390.296112 160.596695,391.315582 
	C160.125168,391.008484 159.653656,390.701385 159.182129,390.394287 
	C159.182129,386.286499 159.215912,382.178314 159.168701,378.071075 
	C159.142807,375.818451 159.722229,373.029846 156.192703,372.885315 
	C152.518753,372.734924 152.588943,375.537842 152.462173,378.066284 
	C152.420639,378.894745 152.453827,379.726898 152.452606,381.033875 
z"/>
<path fill="#FF0E23" opacity="1.000000" stroke="none" 
	d="
M105.038078,343.038055 
	C103.501732,346.428802 100.513474,346.535889 98.048790,345.076813 
	C96.477600,344.146606 95.411774,341.663696 94.971954,339.687256 
	C94.330864,336.806427 95.588814,334.409546 98.745430,333.668915 
	C100.976097,333.145508 103.266991,332.878784 106.250969,332.376221 
	C105.681458,330.895355 105.488922,328.786163 104.553680,328.377747 
	C103.431938,327.887909 101.633812,328.723633 100.207947,329.215515 
	C98.733521,329.724121 97.354263,330.508636 95.186409,331.521454 
	C96.000099,324.598297 100.224297,324.868042 104.147934,324.892792 
	C108.041931,324.917328 110.439072,326.687927 110.411194,330.925385 
	C110.379669,335.715302 110.403923,340.505554 109.234268,346.261292 
	C108.029366,345.326599 106.824463,344.391937 104.984497,342.939911 
	C105.016319,340.367645 105.683220,338.312683 106.523926,335.722198 
	C104.369484,335.892761 102.832413,335.555176 102.199181,336.161530 
	C100.934486,337.372528 100.165405,339.101166 99.191658,340.616028 
	C100.631142,341.260284 102.064835,341.918030 103.513313,342.541382 
	C104.002274,342.751770 104.528748,342.875000 105.038078,343.038055 
z"/>
<path fill="#FF162A" opacity="1.000000" stroke="none" 
	d="
M252.263275,390.651978 
	C250.534607,390.521851 249.175903,390.293304 247.901337,390.525879 
	C242.797974,391.457001 240.113815,389.523010 239.989761,384.450378 
	C239.876205,379.807495 239.965652,375.159637 239.965652,370.492249 
	C243.284241,369.089417 244.679596,369.928772 244.479691,373.463470 
	C244.310837,376.449371 244.407654,379.453339 244.462738,382.447906 
	C244.508026,384.909698 244.090103,387.891388 247.902969,387.771332 
	C251.655243,387.653229 251.111496,384.633636 251.158783,382.217590 
	C251.233414,378.403534 251.178650,374.586945 251.178650,370.266296 
	C252.673096,370.133606 253.996292,370.016144 255.812317,369.854919 
	C255.812317,376.308044 255.942307,382.272339 255.672195,388.218445 
	C255.631668,389.111053 253.718704,389.918579 252.263275,390.651978 
z"/>
<path fill="#FF0F24" opacity="1.000000" stroke="none" 
	d="
M341.962524,376.035492 
	C340.910309,371.699677 338.798889,372.234955 336.191101,374.146729 
	C335.075012,374.965027 333.723053,375.461548 332.046295,376.327301 
	C331.465393,370.799225 334.621216,370.139526 337.846649,369.934418 
	C341.575989,369.697174 345.758453,369.595764 346.164978,374.711090 
	C346.570770,379.817230 346.253998,384.980774 346.253998,390.130951 
	C342.574036,390.340210 338.986328,391.124542 335.662933,390.500671 
	C333.866425,390.163422 331.708832,387.649872 331.162231,385.710083 
	C330.332581,382.765778 331.125977,379.697479 334.892578,378.644592 
	C337.265533,377.981232 339.602478,377.189026 341.962524,376.035492 
M342.001740,382.392883 
	C340.311157,382.176697 338.481506,381.487061 336.983582,381.926971 
	C336.124420,382.179291 335.434052,384.250519 335.383392,385.531158 
	C335.354401,386.263763 336.721313,387.622467 337.530090,387.678223 
	C338.631714,387.754150 340.039307,387.101807 340.867554,386.299255 
	C341.575562,385.613251 341.651917,384.275391 342.001740,382.392883 
z"/>
<path fill="#FF0F24" opacity="1.000000" stroke="none" 
	d="
M69.619537,371.643524 
	C70.981895,370.898468 72.007576,370.248535 73.116089,370.040985 
	C81.507179,368.470123 84.556450,372.050812 82.758324,381.800354 
	C79.425201,381.800354 76.000305,381.800354 71.174057,381.800354 
	C72.595970,384.339996 73.164345,386.543610 74.550186,387.360626 
	C75.315689,387.811890 77.422791,385.877838 78.979218,385.131927 
	C80.217949,384.538239 81.538696,384.115723 83.118820,383.502411 
	C83.750916,389.108185 80.561890,390.373718 76.903328,390.688568 
	C73.166389,391.010162 68.767395,390.739105 68.294678,386.091766 
	C67.823387,381.458435 68.914902,376.666107 69.619537,371.643524 
M78.987762,377.455963 
	C79.157814,374.823456 78.633545,372.542999 75.345299,372.906036 
	C71.857018,373.291138 72.003174,375.833466 72.421875,379.062561 
	C74.707779,378.786530 76.761978,378.538483 78.987762,377.455963 
z"/>
<path fill="#FF0F24" opacity="1.000000" stroke="none" 
	d="
M198.284790,380.515747 
	C196.477203,381.213806 194.774246,381.624298 193.049225,381.765381 
	C191.256577,381.911957 189.442612,381.798004 186.237961,381.798004 
	C187.577744,384.291351 188.107635,386.522705 189.483109,387.352661 
	C190.261383,387.822266 192.412552,385.957397 193.974976,385.205536 
	C195.204681,384.613770 196.479675,384.116150 198.103180,383.418213 
	C198.705917,389.381897 195.241837,390.377747 191.447784,390.747864 
	C186.362152,391.243988 183.513229,389.334503 183.037292,385.166870 
	C182.774841,382.868774 182.848846,380.519592 182.921463,378.198181 
	C183.141968,371.149170 187.413132,368.111267 194.157440,370.171509 
	C199.488815,371.800110 198.251556,376.252625 198.284790,380.515747 
M193.993134,375.755310 
	C192.588531,374.818817 190.446503,372.795471 189.919769,373.152802 
	C188.430939,374.162933 187.604279,376.149017 186.516724,377.750580 
	C186.882416,378.090546 187.248093,378.430481 187.613770,378.770447 
	C189.684204,377.826569 192.962753,381.286499 193.993134,375.755310 
z"/>
<path fill="#FF0C21" opacity="1.000000" stroke="none" 
	d="
M39.610954,335.910217 
	C40.173378,326.350983 42.218708,324.107513 49.289459,324.933136 
	C50.099415,325.027710 50.940945,325.183685 51.678253,325.512238 
	C55.214920,327.088226 57.090687,337.492920 54.755138,342.371246 
	C53.195503,345.628967 46.093807,347.452911 42.832230,344.549530 
	C40.871128,342.803833 40.628086,339.128113 39.610954,335.910217 
M47.518196,342.866211 
	C51.119881,341.080658 52.709717,330.416626 49.476910,328.507172 
	C48.412300,327.878296 46.067551,328.097778 45.096073,328.892548 
	C42.750858,330.811096 44.089252,340.524384 47.518196,342.866211 
z"/>
<path fill="#FF0D22" opacity="1.000000" stroke="none" 
	d="
M272.060608,340.344452 
	C273.604614,341.397034 275.296722,342.730225 276.561523,342.404449 
	C277.593231,342.138702 278.629669,339.936829 278.759308,338.511139 
	C279.074402,335.045776 279.010529,331.524506 278.820312,328.040985 
	C278.645874,324.845825 280.048096,324.341522 282.903137,325.283691 
	C282.903137,331.870026 282.903137,338.468536 282.903137,345.646362 
	C279.320770,345.646362 275.585999,346.184937 272.138092,345.423889 
	C270.357635,345.030914 268.015839,342.461548 267.791931,340.645630 
	C267.188293,335.750214 267.585480,330.731384 267.585480,325.281738 
	C268.716034,325.134277 270.088501,324.955231 272.024017,324.702759 
	C272.024017,330.004211 272.024017,334.956024 272.060608,340.344452 
z"/>
<path fill="#FF0A20" opacity="1.000000" stroke="none" 
	d="
M88.346535,390.289795 
	C88.057487,383.472107 88.057487,377.002106 88.057487,369.917786 
	C91.647896,369.917786 95.297256,369.447571 98.725235,370.114807 
	C100.456612,370.451782 102.868439,372.699982 103.092560,374.340790 
	C103.717926,378.919189 103.541763,383.642517 103.261070,388.283142 
	C103.194565,389.382660 101.476974,390.382294 100.518860,391.427856 
	C100.008316,391.158722 99.497772,390.889618 98.987228,390.620483 
	C98.987228,386.026093 99.236198,381.410034 98.840073,376.850067 
	C98.716400,375.426514 96.850563,374.154266 95.782227,372.812775 
	C94.576103,374.085968 92.528366,375.240509 92.328857,376.655609 
	C91.822418,380.247681 92.012230,383.962433 92.177216,387.616608 
	C92.302010,390.380707 91.192871,391.243286 88.346535,390.289795 
z"/>
<path fill="#FF0C21" opacity="1.000000" stroke="none" 
	d="
M319.782135,390.769226 
	C312.552551,389.978058 311.690735,389.072784 311.600006,382.523529 
	C311.572388,380.528839 311.175934,378.408569 311.715057,376.570679 
	C312.349884,374.406525 313.485931,371.117950 314.995239,370.751923 
	C317.948242,370.035675 321.409088,370.652588 324.448730,371.486633 
	C325.447723,371.760742 325.795197,374.409515 326.440582,375.972382 
	C326.010773,376.387115 325.580963,376.801849 325.151154,377.216583 
	C323.990540,376.420135 322.860352,375.573822 321.660553,374.841492 
	C320.513275,374.141266 319.160156,372.911896 318.145996,373.120941 
	C317.257538,373.304016 316.249756,375.107117 316.112854,376.289398 
	C315.808899,378.914398 315.808472,381.622894 316.110779,384.248230 
	C316.250732,385.463470 317.204376,387.289520 318.123077,387.522675 
	C319.147095,387.782532 320.622833,386.660095 321.769196,385.930695 
	C322.965332,385.169678 324.003357,384.160187 325.786072,382.709656 
	C326.804871,388.775757 323.931854,390.138062 319.782135,390.769226 
z"/>
<path fill="#FF0C21" opacity="1.000000" stroke="none" 
	d="
M175.405701,382.805084 
	C176.370010,385.371490 177.333954,387.468811 178.372910,389.729340 
	C175.015900,392.102142 171.338821,390.833099 171.027786,386.450287 
	C170.828445,383.641266 171.226181,380.779663 170.909958,377.992279 
	C170.648392,375.686646 169.732941,373.455200 169.180725,371.456940 
	C170.228256,369.395172 171.673874,366.549927 173.173920,363.597534 
	C175.625793,367.326263 176.861160,369.204987 178.350006,371.469147 
	C174.016174,373.395050 175.510117,378.105804 175.405701,382.805084 
z"/>
<path fill="#FF0A20" opacity="1.000000" stroke="none" 
	d="
M85.335495,325.011841 
	C87.622047,325.257080 89.531189,325.390625 92.521286,325.599762 
	C91.600494,326.794830 90.742798,327.852539 89.946213,328.954437 
	C88.653809,330.742157 86.798744,332.403961 86.285240,334.402557 
	C85.647522,336.884552 85.996849,339.664124 86.168785,342.298950 
	C86.383423,345.587952 85.056076,346.485443 81.602043,345.218689 
	C81.602043,339.280182 81.481934,333.183502 81.750519,327.104004 
	C81.784988,326.323669 83.839409,325.632568 85.335495,325.011841 
z"/>
<path fill="#FF0A20" opacity="1.000000" stroke="none" 
	d="
M26.605385,339.713837 
	C26.605083,334.614777 26.605083,329.981995 26.605083,325.694611 
	C30.116201,325.694611 33.316883,325.694611 37.229279,325.694611 
	C36.656643,326.636841 36.135220,328.567017 35.266541,328.738525 
	C31.504885,329.481262 31.103331,332.021851 31.131510,335.053955 
	C31.162319,338.369171 31.138517,341.684845 31.138517,345.089081 
	C25.127506,347.259796 26.985636,342.722900 26.605385,339.713837 
z"/>
<path fill="#FF091F" opacity="1.000000" stroke="none" 
	d="
M343.389771,340.653320 
	C343.441132,343.790466 343.887299,346.831207 339.155029,345.417908 
	C339.155029,338.804443 339.155029,332.099945 339.155029,325.040985 
	C342.186432,325.213409 345.162018,325.382629 348.960358,325.598663 
	C348.794861,326.353394 348.663422,328.522888 348.255737,328.576111 
	C342.190155,329.367920 343.626953,333.972473 343.401001,337.724640 
	C343.351379,338.548279 343.391357,339.377258 343.389771,340.653320 
z"/>
<path fill="#FF051C" opacity="1.000000" stroke="none" 
	d="
M288.654755,332.989197 
	C288.665863,328.004486 288.833557,323.511169 288.636200,319.033905 
	C288.491943,315.761017 289.998596,315.447266 292.767212,316.248566 
	C292.767212,325.826355 292.767212,335.412964 292.767212,345.236023 
	C290.063110,346.348389 288.491791,345.954132 288.631805,342.461487 
	C288.751556,339.474609 288.655487,336.479126 288.654755,332.989197 
z"/>
<path fill="#FF1025" opacity="1.000000" stroke="none" 
	d="
M288.565430,373.019897 
	C287.812744,372.967743 287.538605,372.800934 287.181183,372.353119 
	C289.743591,371.559937 292.636292,370.134735 295.047791,370.713806 
	C296.394043,371.037079 297.518219,374.636261 297.725586,376.854279 
	C298.138031,381.265411 297.847626,385.742310 297.847626,390.367004 
	C294.978729,391.298950 293.383728,390.914520 293.541138,387.452637 
	C293.699005,383.981262 293.565399,380.497070 293.576385,377.018524 
	C293.586182,373.918579 292.289886,372.324829 288.565430,373.019897 
z"/>
<path fill="#FF2438" opacity="1.000000" stroke="none" 
	d="
M261.140778,385.753235 
	C261.140442,380.345062 261.140442,375.406036 261.140442,370.360931 
	C264.383484,369.323944 266.041382,369.652557 265.910278,373.391266 
	C265.714203,378.983032 265.859314,384.586792 265.859314,390.109894 
	C261.340240,390.929321 261.340240,390.929321 261.140778,385.753235 
z"/>
<path fill="#FF071D" opacity="1.000000" stroke="none" 
	d="
M301.994385,387.641693 
	C301.993439,381.689850 301.993439,376.204346 301.993439,370.718842 
	C302.322601,370.318756 302.651764,369.918701 302.980957,369.518616 
	C304.096924,370.488800 306.125183,371.411591 306.178436,372.436951 
	C306.486633,378.367859 306.328888,384.322998 306.328888,390.269928 
	C305.857391,390.587555 305.385864,390.905212 304.914368,391.222839 
	C303.941345,390.184570 302.968353,389.146301 301.994385,387.641693 
z"/>
<path fill="#FF2438" opacity="1.000000" stroke="none" 
	d="
M267.529907,361.022675 
	C266.642822,364.100128 265.628540,367.312805 261.054962,366.547516 
	C262.436005,363.637543 262.606232,359.923706 267.529907,361.022675 
z"/>
<path fill="#FEFEFF" opacity="1.000000" stroke="none" 
	d="
M351.683777,273.353485 
	C333.919067,258.221863 327.811401,238.680847 328.559174,216.470398 
	C329.175812,198.153900 334.721802,181.687241 348.649780,169.111343 
	C375.154022,145.180069 416.939880,150.687378 437.993927,180.633224 
	C455.863220,206.049301 453.539520,243.329803 432.659729,266.212280 
	C411.161469,289.772552 377.533112,292.845978 351.683777,273.353485 
z"/>
<path fill="#FEFEFF" opacity="1.000000" stroke="none" 
	d="
M268.933563,100.341141 
	C268.502625,108.685364 269.419495,117.000755 267.266693,124.426132 
	C261.697357,143.635452 247.016815,153.137085 228.070114,155.866714 
	C218.255981,157.280609 208.157394,156.853729 198.183624,156.991516 
	C186.378067,157.154602 174.568527,157.029846 162.412125,157.029846 
	C162.412125,125.717712 162.412125,94.673096 162.412125,63.291660 
	C163.041809,63.170734 163.805008,62.896069 164.568115,62.896374 
	C183.218735,62.903877 201.874786,62.679718 220.517944,63.068512 
	C231.977203,63.307487 242.889694,66.211403 252.453232,72.960358 
	C261.807404,79.561546 266.872986,88.810867 268.933563,100.341141 
z"/>
<path fill="#F2F7FB" opacity="1.000000" stroke="none" 
	d="
M499.377960,141.610748 
	C500.688477,145.230225 501.700409,148.590240 502.913910,152.619537 
	C497.478668,152.619537 493.238312,152.619537 487.641693,152.619537 
	C488.523224,148.953308 488.499573,144.787155 490.517303,142.234818 
	C491.758270,140.665085 496.119293,141.561935 499.377960,141.610748 
z"/>
<path fill="#FFFAFA" opacity="1.000000" stroke="none" 
	d="
M227.411713,364.305481 
	C228.525314,366.057007 229.768723,367.605591 229.874725,369.228455 
	C230.155823,373.532318 229.949646,377.868286 229.929367,382.191437 
	C229.912811,385.723480 228.498779,387.962036 224.609985,387.839539 
	C221.006805,387.726044 219.734985,385.604675 219.777191,382.273407 
	C219.827728,378.283264 219.771042,374.291840 219.807068,370.301392 
	C219.861191,364.308258 220.726013,363.584747 227.411713,364.305481 
z"/>
<path fill="#FFF1F2" opacity="1.000000" stroke="none" 
	d="
M8.101115,378.943237 
	C8.101122,373.682922 8.101122,368.913757 8.101122,364.219818 
	C17.414133,363.037415 18.667076,364.095032 18.682997,372.643555 
	C18.686705,374.634003 18.684835,376.624481 18.684017,378.614929 
	C18.680445,387.309082 17.615328,388.286438 8.101109,387.629913 
	C8.101109,384.938934 8.101109,382.186646 8.101115,378.943237 
z"/>
<path fill="#FFF1F3" opacity="1.000000" stroke="none" 
	d="
M70.483955,328.415466 
	C71.121758,332.410736 71.721985,336.160553 71.515068,339.865265 
	C71.455688,340.928589 69.161079,342.344025 67.699249,342.635895 
	C67.041924,342.767120 65.368690,340.640259 65.118111,339.351044 
	C64.683571,337.115448 65.071335,334.731537 64.979858,332.415131 
	C64.831909,328.669006 66.406990,327.137756 70.483955,328.415466 
z"/>
<path fill="#FFEBED" opacity="1.000000" stroke="none" 
	d="
M17.002054,321.377563 
	C17.309065,328.708618 16.328632,329.495300 8.567199,328.418091 
	C8.567199,325.381805 8.567199,322.309631 8.567199,317.825897 
	C11.782816,319.034729 14.335047,319.994202 17.002054,321.377563 
z"/>
<path fill="#FFF0F1" opacity="1.000000" stroke="none" 
	d="
M190.642624,334.097961 
	C190.495224,336.496735 190.735855,338.639496 190.011215,340.380554 
	C189.544052,341.503021 187.678528,342.595520 186.405548,342.636292 
	C185.558228,342.663452 184.142349,340.926422 183.884995,339.776642 
	C183.461182,337.883240 183.711685,335.823853 183.783936,333.838257 
	C183.875885,331.310791 183.007507,327.932098 187.056015,327.881805 
	C190.932999,327.833649 190.637115,330.983337 190.642624,334.097961 
z"/>
<path fill="#FFEEEF" opacity="1.000000" stroke="none" 
	d="
M115.890427,387.870300 
	C112.749733,385.822662 111.434433,375.405243 113.949081,373.685608 
	C115.011879,372.958832 117.368553,372.921478 118.431183,373.629822 
	C121.255318,375.512299 119.519073,386.048889 115.890427,387.870300 
z"/>
<path fill="#FFEEEF" opacity="1.000000" stroke="none" 
	d="
M52.351517,382.543396 
	C52.367310,380.126099 51.953117,377.996185 52.546394,376.198822 
	C52.992859,374.846191 54.677643,373.133209 55.911530,373.048889 
	C56.928127,372.979401 58.687412,374.901978 59.051350,376.233215 
	C59.599972,378.239990 59.642200,380.612671 59.110939,382.621216 
	C58.611946,384.507751 57.089794,386.123688 56.017834,387.858673 
	C54.796684,386.230347 53.575539,384.602020 52.351517,382.543396 
z"/>
<path fill="#FFEEEF" opacity="1.000000" stroke="none" 
	d="
M325.860718,327.838623 
	C329.421448,329.417755 329.421448,329.417755 329.226929,333.568787 
	C327.349701,333.568787 325.451447,333.568787 323.150116,333.568787 
	C322.718201,331.240936 322.064575,328.885864 325.860718,327.838623 
z"/>
<path fill="#FFEBED" opacity="1.000000" stroke="none" 
	d="
M156.259888,335.842285 
	C156.869080,337.557007 157.513229,339.442474 157.066620,341.018890 
	C156.828705,341.858734 154.656784,342.652008 153.448517,342.534363 
	C152.679001,342.459473 151.299347,340.045959 151.528030,339.764099 
	C152.731583,338.280884 154.360184,337.142517 156.259888,335.842285 
z"/>
<path fill="#FFF0F1" opacity="1.000000" stroke="none" 
	d="
M133.814758,373.456848 
	C138.871429,371.969910 139.530609,374.516327 138.936661,378.574799 
	C136.847046,378.574799 134.830795,378.574799 132.076187,378.574799 
	C132.638016,376.641266 133.065170,375.171234 133.814758,373.456848 
z"/>
<path fill="#FFF0F1" opacity="1.000000" stroke="none" 
	d="
M37.856087,378.810242 
	C35.992897,378.865540 34.545959,378.865540 31.964090,378.865540 
	C32.781406,376.611176 33.019161,374.644806 34.108791,373.465576 
	C34.714931,372.809601 37.755135,373.096283 37.937992,373.598724 
	C38.503372,375.152283 38.223820,377.013275 37.856087,378.810242 
z"/>
<path fill="#FFEEEF" opacity="1.000000" stroke="none" 
	d="
M209.188568,342.309387 
	C207.505753,341.619476 205.043671,340.777435 205.007523,339.841644 
	C204.851074,335.791779 207.986816,335.867584 212.172806,335.961609 
	C211.152649,338.332642 210.339142,340.223389 209.188568,342.309387 
z"/>
<path fill="#FFEBED" opacity="1.000000" stroke="none" 
	d="
M105.013779,343.021057 
	C104.528748,342.875000 104.002274,342.751770 103.513313,342.541382 
	C102.064835,341.918030 100.631142,341.260284 99.191658,340.616028 
	C100.165405,339.101166 100.934486,337.372528 102.199181,336.161530 
	C102.832413,335.555176 104.369484,335.892761 106.523926,335.722198 
	C105.683220,338.312683 105.016319,340.367645 104.683052,342.740997 
	C105.016678,343.059418 104.989479,343.004059 105.013779,343.021057 
z"/>
<path fill="#FFEBED" opacity="1.000000" stroke="none" 
	d="
M342.004700,382.809387 
	C341.651917,384.275391 341.575562,385.613251 340.867554,386.299255 
	C340.039307,387.101807 338.631714,387.754150 337.530090,387.678223 
	C336.721313,387.622467 335.354401,386.263763 335.383392,385.531158 
	C335.434052,384.250519 336.124420,382.179291 336.983582,381.926971 
	C338.481506,381.487061 340.311157,382.176697 342.004700,382.809387 
z"/>
<path fill="#FFEBED" opacity="1.000000" stroke="none" 
	d="
M78.901970,377.873199 
	C76.761978,378.538483 74.707779,378.786530 72.421875,379.062561 
	C72.003174,375.833466 71.857018,373.291138 75.345299,372.906036 
	C78.633545,372.542999 79.157814,374.823456 78.901970,377.873199 
z"/>
<path fill="#FFEBED" opacity="1.000000" stroke="none" 
	d="
M194.000946,376.181885 
	C192.962753,381.286499 189.684204,377.826569 187.613770,378.770447 
	C187.248093,378.430481 186.882416,378.090546 186.516724,377.750580 
	C187.604279,376.149017 188.430939,374.162933 189.919769,373.152802 
	C190.446503,372.795471 192.588531,374.818817 194.000946,376.181885 
z"/>
<path fill="#FFF1F3" opacity="1.000000" stroke="none" 
	d="
M47.111542,342.823425 
	C44.089252,340.524384 42.750858,330.811096 45.096073,328.892548 
	C46.067551,328.097778 48.412300,327.878296 49.476910,328.507172 
	C52.709717,330.416626 51.119881,341.080658 47.111542,342.823425 
z"/>
</svg>